<?xml version="1.0" standalone="no"?>
<!DOCTYPE svg PUBLIC "-//W3C//DTD SVG 20010904//EN"
 "http://www.w3.org/TR/2001/REC-SVG-20010904/DTD/svg10.dtd">
<svg version="1.0" xmlns="http://www.w3.org/2000/svg"
 width="1059.000000pt" height="1059.000000pt" viewBox="0 0 1059.000000 1059.000000"
 preserveAspectRatio="xMidYMid meet">
<metadata>
Created by potrace 1.11, written by Peter Selinger 2001-2013
</metadata>
<g transform="translate(0.000000,1059.000000) scale(0.100000,-0.100000)"
fill="#000000" stroke="none">
<path d="M7883 7675 c-18 -8 -38 -25 -45 -40 -6 -14 -15 -25 -19 -25 -20 0
-153 -113 -156 -132 -3 -17 -1 -19 12 -8 12 10 15 10 15 -1 0 -11 3 -11 11 1
8 12 9 10 4 -7 -5 -18 -3 -22 9 -17 14 5 20 -4 18 -27 -1 -3 12 -6 28 -5 32 1
36 21 5 21 -10 0 -20 6 -22 13 -6 15 17 15 53 -1 48 -20 83 -48 78 -61 -2 -6
5 -12 17 -13 18 -2 19 0 7 15 -12 15 -11 16 4 3 10 -7 16 -17 13 -21 -3 -4 2
-11 11 -14 15 -6 15 -8 0 -24 -24 -27 -20 -38 7 -16 12 10 19 15 15 10 -4 -5
-2 -16 5 -24 10 -13 9 -14 -1 -8 -9 6 -12 1 -9 -16 2 -12 2 -17 0 -9 -4 11 -7
11 -13 1 -6 -10 -14 -8 -35 9 -21 16 -23 21 -11 21 10 0 15 4 11 9 -3 6 -14 8
-25 6 -16 -3 -18 0 -12 13 5 9 8 22 7 27 -1 16 -38 54 -47 49 -4 -3 -8 0 -8 5
0 8 -7 7 -19 -1 -11 -7 -17 -16 -14 -20 2 -5 12 -3 21 4 15 12 16 11 3 -4 -8
-11 -9 -18 -3 -18 6 0 16 8 22 18 9 15 10 14 5 -5 -5 -19 -3 -22 12 -16 19 7
18 5 -11 -17 -13 -10 -17 -10 -12 -2 4 7 2 12 -8 12 -20 0 -48 29 -40 42 4 6
1 8 -7 6 -8 -3 -13 -10 -12 -15 1 -5 -4 -10 -12 -10 -8 0 -11 7 -7 16 5 14 4
14 -11 2 -15 -12 -17 -12 -11 4 6 14 4 16 -7 9 -23 -14 -67 -12 -74 3 -7 20 4
36 21 29 16 -6 18 3 4 24 -5 8 -10 10 -10 5 0 -6 -12 -18 -27 -27 -34 -21 -89
-68 -79 -68 4 0 23 12 41 26 l34 25 -12 -25 c-7 -14 -14 -20 -18 -14 -4 7 -12
3 -20 -10 -7 -11 -18 -18 -25 -15 -19 7 -56 -81 -57 -139 -2 -72 9 -146 24
-164 10 -13 10 -17 0 -23 -16 -10 -62 -1 -55 10 12 19 -17 7 -41 -17 -22 -22
-32 -25 -63 -20 -20 3 -38 10 -40 16 -3 7 -8 7 -18 -1 -8 -6 -14 -8 -15 -3 -1
5 -4 -1 -7 -14 l-7 -22 -37 18 c-20 11 -51 18 -69 17 -18 -2 -40 2 -49 8 -10
5 -24 8 -31 5 -8 -3 -18 -6 -23 -6 -5 0 -13 -6 -18 -14 -8 -10 -9 -10 -5 2 2
8 10 14 16 12 7 -1 10 2 7 7 -4 5 0 12 6 14 10 4 10 6 1 6 -13 1 -54 -34 -52
-45 0 -3 -2 -9 -6 -12 -4 -4 -5 0 -3 8 2 8 -3 14 -9 13 -7 -2 -13 2 -13 8 0 5
-5 7 -12 3 -7 -4 -8 -3 -4 4 4 6 13 9 21 5 8 -3 15 -1 15 5 0 8 -80 13 -80 4
0 -1 7 -15 16 -30 11 -18 12 -22 2 -10 -8 10 -19 14 -23 10 -5 -4 -5 -2 -2 4
4 7 0 14 -8 18 -8 3 -15 2 -15 -3 0 -5 -18 -5 -41 -1 -50 9 -70 -7 -64 -53 4
-32 4 -32 -13 -11 -14 16 -20 18 -29 9 -7 -7 -10 -15 -7 -18 3 -3 -11 -3 -31
0 -20 3 -44 2 -53 -2 -9 -4 -39 -7 -65 -5 -31 1 -57 -4 -73 -15 -47 -31 -69 7
-25 42 13 10 9 11 -17 2 -18 -6 -39 -20 -45 -30 -7 -11 -23 -19 -36 -19 -29 0
-195 -56 -231 -78 -14 -9 -31 -22 -37 -31 -11 -13 -13 -12 -13 8 0 14 -5 21
-12 18 -7 -2 -18 2 -23 10 -8 11 -19 8 -58 -17 -27 -17 -58 -32 -70 -34 -25
-3 -33 -21 -16 -32 8 -5 11 -2 7 7 -4 9 2 14 19 15 l25 2 -24 -16 c-13 -9 -34
-18 -48 -20 -36 -4 -90 -31 -90 -45 0 -8 -3 -8 -9 2 -5 7 -6 22 -4 32 3 11 0
19 -8 19 -7 0 -9 -3 -6 -6 3 -4 2 -15 -4 -25 -6 -13 -6 -19 1 -19 5 0 10 -5
10 -10 0 -6 -11 -3 -25 6 -23 15 -29 13 -26 -8 0 -4 -7 -4 -16 -1 -11 4 -13 8
-5 11 7 2 10 8 7 12 -3 5 6 7 20 4 18 -3 25 0 25 11 0 16 -12 20 -24 8 -3 -4
-14 -8 -24 -9 -9 -2 -18 -8 -20 -13 -2 -6 -8 -11 -14 -11 -10 0 -37 -29 -38
-41 0 -3 7 -6 15 -6 8 0 12 4 9 9 -3 4 0 8 5 8 6 0 11 -9 11 -19 0 -11 5 -23
10 -26 23 -14 -5 -26 -51 -22 -57 5 -121 -20 -140 -54 -8 -15 -14 -18 -22 -10
-7 7 -6 15 3 26 11 13 10 15 -6 12 -47 -9 -115 -43 -175 -86 -48 -35 -102 -98
-94 -111 4 -6 -1 -7 -11 -3 -13 5 -15 3 -9 -8 4 -8 5 -11 0 -7 -17 16 -307
-169 -337 -216 -4 -6 -8 -7 -8 -3 0 5 -12 0 -27 -11 -16 -10 -44 -26 -63 -35
-47 -22 -116 -89 -133 -129 -29 -67 -103 -103 -91 -45 33 153 25 191 -40 200
-38 5 -78 -15 -108 -54 -12 -17 -29 -38 -37 -46 -17 -18 -81 -122 -81 -132 0
-3 -11 -23 -25 -44 -29 -42 -54 -47 -75 -15 -8 12 -28 35 -43 50 l-28 27 -25
-22 c-23 -20 -37 -45 -60 -102 -10 -27 -10 -26 -18 -60 -4 -16 -10 -37 -13
-45 -3 -8 -8 -24 -9 -35 -3 -17 -14 -59 -19 -75 -1 -3 -7 -18 -13 -33 -7 -16
-12 -33 -12 -38 0 -5 -5 -9 -11 -9 -5 0 -7 -4 -4 -10 3 -5 2 -10 -3 -10 -9 0
-42 -66 -43 -85 0 -5 -5 -15 -11 -22 -17 -21 -15 -154 4 -243 10 -47 20 -105
23 -128 3 -24 9 -51 14 -60 30 -57 14 -100 -68 -183 -36 -36 -81 -84 -100
-105 -32 -37 -71 -112 -71 -137 0 -7 -20 -34 -45 -60 -25 -27 -45 -54 -45 -61
0 -6 -7 -21 -15 -31 -9 -11 -36 -51 -60 -88 -90 -136 -112 -163 -199 -249
-144 -142 -242 -218 -351 -273 -33 -17 -79 -43 -102 -58 -24 -15 -44 -27 -47
-27 -2 0 -21 -8 -42 -17 -22 -9 -42 -16 -46 -15 -5 1 -8 -2 -8 -6 0 -14 -124
-71 -168 -77 -23 -3 -60 -12 -82 -20 -22 -8 -40 -12 -40 -10 0 3 -11 0 -26 -5
-14 -6 -39 -12 -56 -15 -17 -3 -44 -13 -62 -22 -35 -19 -31 -18 -109 -27 -32
-3 -63 -9 -68 -12 -6 -3 -48 -7 -94 -9 -46 -2 -88 -6 -94 -9 -22 -14 -101 -16
-206 -5 -151 15 -163 17 -174 23 -5 4 -36 9 -68 12 -82 9 -80 9 -94 20 -8 6
-39 16 -69 24 -30 7 -66 17 -80 23 -14 6 -27 11 -30 12 -13 4 -50 20 -98 41
-29 13 -57 24 -61 24 -39 0 -163 104 -233 195 -12 17 -26 32 -30 33 -5 2 -8
10 -8 18 0 8 -4 14 -10 14 -5 0 -10 7 -10 16 0 9 -9 27 -20 41 -11 14 -20 21
-20 16 0 -5 5 -14 11 -20 8 -8 8 -13 0 -18 -6 -3 -11 -3 -10 2 1 4 0 11 -1 16
-1 4 -4 19 -5 35 -2 15 -10 54 -19 87 -20 75 -15 146 19 248 14 43 23 82 20
87 -4 6 1 10 9 10 9 0 13 6 10 14 -6 15 22 75 41 88 6 4 7 8 3 8 -4 0 3 30 16
68 45 128 50 202 21 322 -10 43 -31 82 -52 95 -36 24 -94 6 -124 -38 -13 -17
-28 -35 -35 -40 -7 -4 -16 -21 -19 -38 -9 -39 -52 -127 -75 -152 -10 -10 -34
-43 -55 -75 -21 -31 -46 -69 -55 -83 -107 -156 -149 -385 -105 -569 3 -14 8
-35 11 -48 6 -30 69 -204 83 -228 13 -23 61 -133 61 -139 0 -10 56 -123 79
-160 54 -86 177 -218 233 -253 16 -9 28 -20 28 -24 0 -4 15 -15 33 -24 17 -9
34 -20 37 -24 12 -17 243 -121 345 -155 61 -20 117 -39 125 -42 8 -3 20 -7 25
-8 6 -2 30 -8 55 -15 25 -7 61 -17 80 -21 19 -4 55 -13 80 -19 25 -6 63 -13
85 -16 22 -3 54 -10 70 -15 47 -15 475 -33 475 -19 0 3 30 5 68 6 94 0 235 12
312 25 36 6 79 12 96 14 17 3 44 10 60 16 30 11 51 16 117 24 21 3 46 9 57 15
10 6 30 11 44 12 15 1 26 6 26 11 0 4 4 6 8 3 4 -2 39 8 76 24 38 16 92 37
120 46 28 9 57 21 64 27 6 5 12 6 12 3 0 -4 21 4 48 18 26 13 74 37 107 51 33
15 97 45 142 66 45 22 85 39 88 39 3 0 29 15 58 33 56 35 136 71 144 63 3 -2
24 2 46 11 23 8 71 17 107 18 92 5 158 15 202 31 21 7 41 13 43 13 26 -1 167
62 243 108 28 18 52 30 52 28 0 -3 10 1 23 9 19 13 110 40 172 52 11 2 33 6
48 10 113 24 281 32 417 20 41 -4 95 -9 120 -11 25 -2 61 -6 80 -9 19 -3 62
-8 95 -11 33 -3 87 -11 120 -16 33 -6 80 -13 105 -15 25 -3 54 -9 65 -14 11
-5 34 -11 50 -14 17 -2 50 -10 75 -16 25 -6 51 -11 58 -12 6 -1 12 -5 12 -10
0 -4 11 -8 24 -8 14 0 36 -4 49 -9 14 -6 56 -12 94 -16 37 -3 86 -8 108 -10
22 -3 88 -7 147 -10 95 -4 176 -14 368 -47 30 -5 75 -11 100 -15 25 -3 50 -9
55 -13 6 -4 36 -11 68 -14 32 -3 61 -7 65 -10 8 -5 49 -11 134 -21 127 -16
141 19 48 112 -42 42 -59 65 -54 77 3 9 10 13 15 10 5 -3 9 -1 9 3 0 5 8 9 18
9 35 1 128 14 182 24 30 6 67 13 83 15 15 2 42 9 61 15 18 6 42 12 52 15 142
29 171 38 182 52 29 39 5 67 -80 94 -76 23 -123 27 -223 16 -105 -12 -245 -15
-250 -7 -8 13 39 63 128 137 115 95 165 148 176 189 8 31 7 36 -14 50 -45 30
-147 -2 -220 -68 -16 -16 -43 -34 -60 -42 -16 -8 -54 -33 -84 -55 -95 -71
-165 -42 -131 54 7 16 13 41 16 55 2 14 6 34 9 45 7 32 -10 80 -29 83 -28 6
-111 -57 -145 -110 -44 -66 -88 -88 -177 -85 -50 2 -81 -3 -113 -16 -32 -14
-58 -18 -95 -14 -48 5 -62 8 -103 24 -10 3 -20 7 -23 8 -133 40 -212 58 -355
80 -72 11 -101 18 -110 26 -6 4 -30 11 -53 15 -23 4 -42 10 -42 15 0 5 -15 9
-32 9 -93 1 -65 66 37 86 16 3 126 70 173 105 23 17 68 44 100 59 103 50 449
359 589 526 38 47 222 204 237 204 4 0 27 9 52 20 24 11 65 25 92 30 26 5 59
13 75 19 15 6 38 13 51 15 13 2 43 13 67 24 74 33 141 51 209 56 36 3 92 9
125 12 90 11 117 9 132 -12 8 -11 11 -30 8 -46 -8 -33 -8 -165 -2 -193 6 -21
28 -71 53 -117 38 -70 354 -364 504 -468 19 -13 40 -29 45 -36 12 -13 104 -64
116 -64 4 0 18 -4 31 -9 13 -5 27 -9 32 -9 5 0 12 -5 15 -10 8 -12 164 -97
174 -94 4 1 7 -1 7 -6 0 -4 15 -14 33 -21 17 -8 53 -27 79 -42 25 -15 49 -25
53 -21 3 4 9 1 13 -5 4 -7 26 -16 49 -21 68 -15 79 19 25 81 -8 9 -12 17 -8
17 4 0 -2 13 -13 28 -11 16 -18 37 -17 48 3 17 11 19 97 16 190 -5 387 -4 398
2 6 4 11 20 11 36 0 25 -7 32 -46 50 -26 11 -54 20 -63 20 -9 0 -22 5 -29 12
-7 7 -12 9 -12 6 0 -4 -15 -2 -32 3 -18 5 -53 12 -78 15 -25 3 -56 9 -70 14
-14 5 -47 11 -75 12 -49 3 -50 4 -47 32 2 16 9 34 15 41 13 12 186 85 203 85
20 0 64 41 64 59 0 45 -40 62 -155 63 -47 1 -70 -5 -107 -26 -40 -22 -55 -25
-105 -21 -84 6 -82 6 -105 37 -35 50 -61 52 -150 14 l-37 -16 -58 73 c-78 98
-198 216 -256 252 -28 17 -50 39 -54 53 -10 40 4 145 23 179 15 25 85 73 114
78 3 1 23 9 45 19 22 10 47 19 56 21 9 2 32 12 53 23 33 18 41 19 79 7 42 -12
178 -13 242 -1 17 3 66 8 110 11 44 4 94 8 110 11 55 9 70 8 110 -11 64 -29
238 -34 425 -10 30 3 75 8 100 10 59 5 248 43 271 56 10 5 22 8 26 7 10 -4 75
23 170 68 55 27 94 57 163 126 59 57 89 95 86 104 -4 10 -2 12 6 8 8 -5 9 -2
5 9 -3 10 -3 17 1 17 4 0 8 14 9 30 1 17 -3 30 -9 30 -6 0 -3 10 8 22 17 19
17 21 2 15 -10 -3 -20 -1 -24 5 -4 7 -3 8 4 4 7 -4 13 -2 13 3 1 6 2 17 3 24
3 14 -74 163 -115 225 -16 24 -29 46 -29 51 0 4 -11 18 -25 31 -13 12 -23 25
-22 29 1 3 -10 24 -24 46 -32 50 -38 68 -44 136 -17 190 -73 258 -216 264 -38
2 -69 0 -69 -4 0 -9 -3 -9 -92 -14 -37 -2 -73 -9 -81 -15 -14 -12 -27 -7 -27
10 0 5 5 6 10 3 6 -3 10 -1 10 5 0 7 -7 10 -15 6 -8 -3 -15 0 -15 7 0 8 -4 6
-10 -3 -8 -13 -10 -12 -10 3 0 9 -6 17 -12 17 -7 1 -31 9 -53 20 -22 11 -47
19 -56 20 -9 0 -19 3 -23 7 -3 4 -12 8 -19 9 -7 2 -34 7 -62 13 -232 50 -273
55 -445 56 -135 0 -145 -1 -155 -20 -11 -23 -45 -22 -45 2 0 12 -11 13 -67 8
-37 -4 -71 -12 -75 -18 -6 -9 -11 -8 -18 3 -5 8 -10 12 -10 8 0 -4 -12 -3 -27
3 -16 6 -46 14 -68 16 -72 9 -126 43 -154 96 -30 57 -88 120 -102 112 -5 -4
-9 -1 -9 4 0 6 -5 11 -11 11 -6 0 -31 14 -55 32 -37 26 -44 37 -44 64 0 52 11
55 232 63 50 1 67 30 42 69 -42 65 -92 80 -274 86 -84 3 -125 8 -152 22 -36
17 -37 19 -31 58 3 23 9 46 12 51 4 6 7 33 7 60 -1 41 -4 50 -18 49 -10 -1
-15 2 -12 7 8 13 -16 10 -53 -6z m-33 -335 c0 -5 -5 -10 -11 -10 -5 0 -7 5 -4
10 3 6 8 10 11 10 2 0 4 -4 4 -10z m135 -110 c11 -17 -5 -32 -21 -19 -7 6 -11
15 -8 20 7 12 21 11 29 -1z m-1895 -406 c0 -2 -9 -4 -21 -4 -11 0 -18 4 -14
10 5 8 35 3 35 -6z m-4 -21 c-8 -8 -56 -11 -51 -3 3 4 16 8 30 8 14 0 24 -3
21 -5z m-361 -102 c3 -5 0 -13 -6 -17 -7 -4 -9 -3 -5 4 3 5 0 13 -6 15 -9 4
-10 6 -1 6 6 1 14 -3 18 -8z m-252 -147 c-7 -3 -10 -11 -7 -18 3 -7 -2 -13
-10 -13 -11 0 -13 5 -5 19 5 10 15 18 22 17 9 0 9 -2 0 -5z m-43 -33 c0 -6 -4
-12 -8 -15 -5 -3 -9 1 -9 9 0 8 4 15 9 15 4 0 8 -4 8 -9z"/>
<path d="M7680 7445 c11 -13 10 -14 -5 -9 -13 5 -16 4 -11 -4 4 -7 3 -12 -3
-12 -5 0 -11 6 -14 13 -2 6 -8 9 -12 5 -5 -5 -5 -11 -2 -14 10 -10 56 -13 62
-4 7 12 -5 40 -17 40 -6 0 -5 -7 2 -15z"/>
<path d="M7710 7430 c0 -5 5 -10 11 -10 5 0 7 5 4 10 -3 6 -8 10 -11 10 -2 0
-4 -4 -4 -10z"/>
<path d="M7879 7367 c-9 -29 -6 -43 11 -44 10 -1 23 4 29 11 8 10 5 16 -14 24
-14 6 -25 11 -26 9z"/>
<path d="M7925 7300 c-4 -6 -11 -8 -16 -5 -5 4 -9 2 -9 -4 0 -20 19 -21 30 -1
11 20 7 29 -5 10z"/>
<path d="M5614 6673 c3 -4 -6 -12 -21 -19 l-28 -12 29 3 c32 2 60 35 30 35
-10 0 -14 -3 -10 -7z"/>
</g>
</svg>
