<?xml version="1.0" standalone="no"?>
<!DOCTYPE svg PUBLIC "-//W3C//DTD SVG 20010904//EN"
 "http://www.w3.org/TR/2001/REC-SVG-20010904/DTD/svg10.dtd">
<svg version="1.0" xmlns="http://www.w3.org/2000/svg"
 width="585.000000pt" height="585.000000pt" viewBox="0 0 585.000000 585.000000"
 preserveAspectRatio="xMidYMid meet">
<metadata>
Created by potrace 1.11, written by Peter Selinger 2001-2013
</metadata>
<g transform="translate(0.000000,585.000000) scale(0.100000,-0.100000)"
fill="#000000" stroke="none">
<path d="M2130 4087 c-3 -2 -131 -7 -285 -10 -271 -5 -356 -13 -490 -49 l-39
-10 33 -27 34 -28 -17 -50 c-29 -86 -110 -147 -193 -144 -67 2 -80 -5 -51 -28
l22 -18 -21 -7 c-14 -4 -33 1 -55 14 -18 11 -50 20 -72 20 -38 0 -46 4 -101
58 -27 27 -38 75 -29 131 6 35 4 41 -11 41 -9 0 -28 -12 -41 -27 -104 -121
-125 -151 -140 -195 -30 -92 -8 -186 63 -260 34 -35 35 -37 23 -75 -7 -21 -25
-65 -41 -99 l-28 -61 13 -79 c19 -105 40 -182 60 -219 9 -16 16 -34 16 -40 2
-45 195 -174 341 -229 44 -17 57 -17 200 -2 85 8 190 18 234 22 l80 6 -41 -43
c-55 -60 -76 -95 -89 -154 -15 -63 -13 -100 14 -305 30 -234 61 -538 61 -601
0 -76 -23 -107 -131 -180 -75 -50 -107 -65 -173 -81 -128 -30 -225 -68 -301
-118 -38 -25 -90 -55 -115 -67 -77 -38 -116 -82 -129 -144 -14 -73 -23 -162
-22 -236 0 -34 -6 -78 -14 -97 -14 -33 -58 -76 -77 -76 -5 0 -33 22 -62 49
-90 86 -179 93 -254 21 -49 -48 -68 -80 -82 -146 -13 -58 -63 -109 -125 -125
-91 -24 -95 -28 -95 -91 l0 -58 1635 0 c1206 0 1634 3 1632 11 -1 6 4 14 12
17 10 3 12 0 8 -12 -6 -16 28 -17 478 -16 284 1 485 6 485 11 0 5 -9 9 -20 9
-11 0 -20 6 -20 13 0 9 12 14 30 14 20 0 26 -3 18 -9 -10 -6 -10 -8 2 -9 8 -1
20 -3 25 -4 6 -2 15 -3 20 -4 6 -1 3 -6 -5 -11 -10 -6 199 -10 600 -9 533 0
611 2 583 14 -38 16 -44 28 -9 19 13 -3 27 -1 30 5 5 7 -6 11 -29 11 -29 0
-36 3 -31 15 3 9 0 15 -8 15 -8 0 -16 10 -19 23 -2 12 -8 30 -12 40 -5 12 -3
17 9 17 24 0 19 29 -6 40 -18 7 -19 9 -5 9 18 1 25 21 7 21 -5 0 -10 8 -10 17
0 14 3 14 20 -5 11 -12 20 -24 20 -28 0 -10 43 -45 48 -39 3 3 0 11 -6 17 -16
16 -15 29 1 22 8 -3 20 2 27 11 30 37 59 9 34 -34 -23 -38 -12 -76 26 -93 35
-15 39 -38 10 -56 -12 -7 -18 -17 -15 -21 3 -5 -1 -12 -7 -14 -7 -3 56 -6 140
-6 l152 -1 0 138 0 138 -42 14 c-42 15 -43 16 -43 60 0 53 -9 70 -36 70 -25 0
-68 48 -69 77 0 12 -4 25 -10 28 -5 3 -10 1 -10 -5 0 -6 -4 -9 -9 -6 -10 7 -3
46 8 46 4 0 12 -5 17 -10 16 -16 114 -25 114 -11 0 6 -7 11 -15 11 -17 0 -20
25 -5 35 16 10 11 38 -10 65 -11 14 -20 33 -20 42 0 9 -18 34 -39 55 -24 24
-40 49 -43 68 -2 25 -7 29 -25 27 -19 -3 -23 2 -23 22 0 28 26 59 42 50 7 -5
9 2 4 22 -19 73 -18 105 0 125 32 35 49 40 98 25 45 -14 46 -14 46 9 0 29 24
49 50 42 18 -5 20 0 20 37 0 45 -13 66 -42 66 -15 0 -35 31 -51 81 -3 9 -26
26 -51 39 -25 12 -46 24 -46 26 0 3 7 18 15 34 22 42 42 50 83 33 19 -8 41
-12 48 -9 27 11 13 33 -28 45 -56 17 -68 28 -68 61 0 38 9 60 25 60 7 0 18 13
23 29 10 28 9 30 -29 45 -22 9 -46 16 -53 16 -28 0 -54 47 -52 96 1 56 20 73
63 58 25 -8 28 -14 29 -55 1 -46 27 -98 51 -99 6 0 13 -5 15 -11 2 -7 12 -7
29 0 19 7 26 16 24 33 -3 33 -3 32 -26 57 -17 18 -20 31 -16 63 4 28 1 49 -10
64 -18 28 -9 66 15 63 53 -5 52 -7 52 115 0 128 2 125 -91 160 -66 25 -112 67
-170 153 -63 93 -100 113 -160 89 -53 -22 -78 -20 -100 6 -22 25 -40 85 -35
114 6 29 -36 95 -73 117 -30 17 -31 17 -31 0 0 -10 7 -39 15 -65 50 -167 -55
-346 -177 -299 -13 5 -30 22 -38 37 -8 16 -30 45 -47 64 -18 19 -33 38 -33 43
0 4 -4 7 -9 7 -5 0 -24 15 -42 33 -38 36 -59 104 -51 157 7 47 49 109 79 116
32 8 104 -4 123 -20 29 -26 178 -56 164 -34 -3 5 -7 27 -9 49 -3 23 -13 55
-23 73 -17 29 -22 31 -80 32 -49 1 -77 9 -138 38 -97 48 -137 62 -202 71 -51
7 -52 6 -52 -19 0 -33 -35 -51 -120 -60 -36 -4 -92 -14 -125 -21 -33 -8 -73
-17 -88 -20 -20 -4 -36 -19 -55 -52 -39 -67 -98 -133 -146 -164 -22 -14 -70
-53 -106 -86 -36 -32 -78 -64 -95 -71 -16 -6 -81 -14 -143 -16 -107 -5 -113
-4 -141 20 -48 40 -62 88 -47 165 7 35 21 84 30 109 10 25 24 72 32 105 11 43
25 70 51 97 l36 37 -37 21 c-31 19 -36 27 -36 59 0 31 -5 40 -25 49 -14 7 -39
12 -54 12 -15 0 -48 10 -72 23 -38 20 -47 21 -68 11 -21 -11 -30 -10 -53 4
-15 9 -28 19 -28 23 0 11 -101 119 -111 119 -5 0 -9 -21 -9 -47 -1 -144 -2
-148 -35 -148 -29 0 -30 1 -28 46 3 46 1 49 -75 128 -78 82 -106 99 -100 59 2
-16 -9 -30 -44 -55 -88 -61 -199 -81 -258 -46 -26 15 -31 15 -91 -9 -93 -37
-120 -41 -145 -20 -21 16 -49 81 -40 90 8 7 26 -9 26 -24 0 -8 5 -14 10 -14
27 0 -20 158 -50 168 -8 3 -10 -1 -6 -9 4 -8 -8 3 -26 23 -40 46 -76 54 -162
38 -45 -8 -71 -19 -88 -37 -13 -14 -53 -40 -90 -59 -50 -25 -69 -41 -74 -59
-3 -14 -12 -25 -19 -25 -8 0 -16 -13 -20 -29 -3 -16 -19 -42 -35 -57 -16 -16
-30 -38 -30 -48 0 -16 -3 -17 -12 -8 -19 19 -33 14 -15 -6 10 -10 14 -22 10
-27 -5 -4 2 -4 15 -1 23 8 29 -3 11 -21 -6 -6 -13 -34 -16 -63 l-5 -52 56 -54
c31 -30 63 -54 71 -54 9 0 31 -11 48 -24 61 -46 157 -62 194 -34 7 5 22 7 33
3 28 -9 118 4 131 19 5 6 16 20 24 31 7 11 17 16 21 12 5 -4 2 -13 -6 -18 -12
-9 -12 -10 3 -5 10 3 20 6 23 6 2 0 10 13 19 29 8 16 24 32 35 36 11 4 18 11
15 16 -4 5 4 13 17 19 l23 9 -22 7 c-13 3 -23 11 -24 18 0 6 -2 23 -4 38 -5
34 29 44 79 23 44 -19 61 -51 52 -99 -6 -32 -26 -52 -26 -25 0 5 -4 7 -10 4
-5 -3 -10 -15 -10 -26 0 -10 -7 -19 -15 -19 -8 0 -24 -13 -37 -30 -12 -17 -31
-30 -43 -30 -12 0 -32 -10 -45 -22 -13 -12 -31 -23 -39 -24 -9 -1 -68 -13
-131 -27 -63 -13 -133 -25 -155 -26 -55 -1 -95 -11 -95 -22 0 -6 -4 -8 -9 -5
-5 3 -11 -4 -14 -15 -4 -15 -11 -20 -22 -15 -11 4 -32 -6 -57 -26 -34 -27 -42
-29 -49 -16 -7 12 -23 14 -82 11 -60 -3 -76 -1 -87 12 -12 14 -12 16 1 13 8
-1 29 8 47 20 17 13 32 18 32 12 0 -7 8 -9 22 -5 16 6 26 1 39 -16 18 -23 19
-23 19 -4 0 12 4 25 10 31 6 6 -5 8 -32 6 -28 -3 -39 -1 -34 7 4 6 0 11 -9 11
-10 0 -13 5 -9 13 10 16 -26 -12 -47 -37 -10 -12 -22 -17 -32 -13 -20 7 -23
29 -4 25 7 -2 12 2 12 7 0 6 -12 9 -27 7 -33 -4 -35 2 -8 30 11 12 20 29 20
37 -1 12 -7 8 -23 -10 -30 -36 -58 -49 -104 -49 -31 0 -46 7 -72 34 -22 23
-29 36 -21 41 6 4 9 13 6 21 -3 7 2 17 11 22 11 6 12 11 4 16 -17 11 -14 66 4
66 18 0 19 4 3 30 -11 17 -9 22 12 37 14 10 31 18 39 20 7 1 23 11 36 23 13
12 26 17 29 12 3 -5 -1 -15 -9 -22 -13 -11 -13 -14 2 -26 11 -8 13 -13 6 -14
-18 0 -16 -20 1 -20 9 0 13 7 11 20 -2 11 0 22 6 25 5 4 9 1 9 -4 0 -6 4 -11
10 -11 5 0 7 13 5 29 -2 20 3 35 16 47 10 9 19 12 19 6 0 -6 7 -9 15 -6 23 9
18 24 -9 24 -14 0 -48 5 -76 12 -40 9 -54 18 -61 36 -16 43 -11 71 19 89 15
10 29 21 32 25 8 11 80 58 89 58 15 0 71 32 71 40 0 13 83 60 134 75 24 7 61
22 82 33 38 19 118 45 139 45 6 -1 61 -4 123 -8 109 -7 114 -7 128 14 18 24
48 27 95 7 42 -18 121 -24 125 -11 5 18 -68 70 -100 71 -66 3 -68 4 -62 19 4
10 -8 18 -42 29 -26 8 -82 31 -125 52 -70 33 -163 55 -177 41z m-235 -56 c3
-6 -4 -15 -15 -21 -17 -9 -20 -8 -20 10 0 20 24 28 35 11z m552 -74 c-5 -16
-37 -21 -50 -8 -18 18 11 43 35 30 10 -6 17 -16 15 -22z m-977 -22 c0 -16 -27
-32 -37 -22 -3 4 -3 13 0 22 8 20 37 20 37 0z m220 -99 c0 -11 -19 -15 -25 -6
-3 5 1 10 9 10 9 0 16 -2 16 -4z m-220 -51 c0 -8 -4 -15 -9 -15 -13 0 -22 16
-14 24 11 11 23 6 23 -9z m888 -7 c20 -20 13 -38 -15 -39 -16 0 -37 -4 -48 -9
-17 -7 -15 -9 12 -9 48 -1 48 -18 0 -24 -54 -7 -84 -14 -98 -23 -7 -4 -25 -8
-40 -10 -27 -3 -28 -2 -16 16 6 11 19 23 29 25 20 7 31 32 17 40 -22 14 6 25
62 25 33 0 59 4 59 10 0 14 23 13 38 -2z m1 -152 c-3 -48 -24 -86 -49 -86 -5
0 -10 -7 -10 -15 0 -8 -4 -15 -9 -15 -12 0 -23 29 -15 41 3 5 1 9 -4 9 -6 0
-12 6 -15 14 -4 9 0 12 13 9 10 -3 20 -1 22 4 7 12 -20 73 -32 73 -6 0 -10 3
-10 8 0 4 25 7 55 8 l56 0 -2 -50z m-1179 -51 c17 -9 30 -24 30 -35 0 -10 7
-26 16 -34 8 -9 13 -20 10 -24 -3 -5 3 -18 13 -29 28 -29 32 -55 16 -85 -12
-25 -12 -28 1 -28 8 0 12 -5 9 -10 -5 -8 -11 -8 -19 -1 -13 11 -66 -6 -66 -21
0 -11 -69 -30 -86 -24 -8 3 -17 -1 -21 -10 -3 -8 -12 -13 -19 -10 -8 3 -32 -3
-53 -14 -33 -18 -42 -19 -68 -8 -25 11 -30 18 -27 42 2 16 8 32 14 36 8 5 8
15 0 35 -8 20 -7 31 2 42 10 12 9 18 -6 28 -13 10 -15 18 -8 32 6 10 18 37 28
60 11 24 24 43 29 44 6 1 19 3 30 4 11 2 38 8 60 13 58 15 82 14 115 -3z
m1700 -45 c0 -5 -4 -10 -10 -10 -5 0 -10 5 -10 10 0 6 5 10 10 10 6 0 10 -4
10 -10z m-283 -66 c4 -11 -85 -29 -95 -20 -6 7 60 35 77 33 8 -1 16 -7 18 -13z
m721 -37 c4 -22 -43 -46 -60 -29 -9 9 -7 17 7 32 22 24 48 23 53 -3z m-400
-71 c2 -27 -1 -36 -13 -36 -8 0 -20 -11 -25 -25 -11 -30 -30 -33 -37 -6 -3 11
-17 22 -36 26 -27 6 -30 8 -16 18 14 8 15 15 6 34 -13 28 -7 34 40 43 52 9 77
-8 81 -54z m-982 -48 l17 -33 -27 24 c-27 25 -33 41 -16 41 5 0 17 -15 26 -32z
m538 6 c8 -31 -10 -57 -20 -30 -4 12 -13 15 -28 10 -20 -6 -20 -5 3 20 31 33
37 33 45 0z m591 -38 c21 -39 25 -57 20 -91 -5 -32 -3 -46 10 -59 13 -12 21
-14 28 -7 17 17 73 13 97 -7 44 -35 -3 -101 -57 -81 -15 5 -26 2 -39 -12 -9
-10 -27 -19 -40 -19 -21 0 -22 -3 -17 -52 5 -49 3 -55 -24 -79 -15 -14 -50
-34 -78 -43 -90 -31 -91 -31 -109 5 -16 32 -16 33 15 65 42 44 34 68 -18 58
-55 -10 -83 -22 -83 -35 0 -8 -11 -9 -32 -5 -19 4 -75 -2 -133 -13 -114 -22
-291 -52 -348 -58 -38 -4 -38 -4 -19 15 11 11 26 19 34 19 59 -6 208 39 208
63 0 6 19 24 43 41 50 36 74 74 57 94 -8 10 2 19 49 44 33 17 70 31 83 31 13
0 36 7 52 15 15 8 39 15 53 15 31 0 83 38 83 61 0 10 11 30 25 45 14 15 25 31
25 37 0 5 11 6 24 3 14 -3 28 -2 31 4 11 17 33 -3 60 -54z m-2288 -43 c3 -10
16 -31 28 -48 22 -30 48 -95 41 -102 -2 -2 -11 14 -19 36 -9 21 -21 42 -27 46
-16 10 -52 85 -40 85 6 0 13 -8 17 -17z m1298 -1 c-3 -3 -11 0 -18 7 -9 10 -8
11 6 5 10 -3 15 -9 12 -12z m1398 -140 c71 -68 79 -101 49 -214 -19 -72 -44
-108 -74 -108 -11 0 -39 -9 -64 -20 -63 -29 -101 -35 -129 -20 -20 11 -28 10
-47 -4 -13 -9 -39 -28 -58 -42 -29 -22 -42 -25 -78 -20 -77 10 -79 20 -19 98
59 76 73 89 105 97 24 6 27 13 30 54 3 40 8 50 42 77 21 17 50 50 64 74 28 49
78 79 116 70 14 -3 42 -22 63 -42z m-2005 -11 c3 -8 -1 -12 -9 -9 -7 2 -15 10
-17 17 -3 8 1 12 9 9 7 -2 15 -10 17 -17z m-594 -27 c5 -14 4 -15 -9 -4 -17
14 -19 20 -6 20 5 0 12 -7 15 -16z m1676 -24 c0 -5 -4 -10 -10 -10 -5 0 -10 5
-10 10 0 6 5 10 10 10 6 0 10 -4 10 -10z m-815 -70 c-3 -5 -10 -10 -16 -10 -5
0 -9 5 -9 10 0 6 7 10 16 10 8 0 12 -4 9 -10z m-785 -74 c0 -3 -4 -8 -10 -11
-5 -3 -10 -1 -10 4 0 6 5 11 10 11 6 0 10 -2 10 -4z m1260 -45 c0 -8 -83 -31
-112 -31 -23 0 3 13 49 26 60 16 63 16 63 5z m-380 -11 c0 -5 -4 -10 -10 -10
-5 0 -10 5 -10 10 0 6 5 10 10 10 6 0 10 -4 10 -10z m-45 -60 c22 -9 17 -11
-45 -15 -19 -2 -66 -6 -104 -10 -50 -5 -66 -4 -61 5 4 6 13 9 21 6 7 -3 16 -1
20 5 3 6 12 8 18 6 7 -3 28 -2 47 3 45 11 79 11 104 0z m1915 -24 c0 -24 -11
-46 -24 -46 -22 0 -55 30 -50 45 8 20 74 20 74 1z m515 -90 c39 -14 78 -25 88
-26 9 0 17 -4 17 -9 0 -5 18 -8 40 -7 63 5 171 -52 261 -137 35 -32 37 -37 33
-87 -4 -58 -9 -51 123 -171 29 -27 42 -47 45 -71 4 -42 -14 -93 -39 -103 -42
-17 -141 -37 -180 -36 -64 2 -86 15 -113 67 -45 89 -75 117 -133 131 -28 7
-68 12 -88 13 -47 0 -89 38 -89 78 0 17 -10 40 -25 56 -27 29 -40 29 -120 -2
-22 -8 -65 -16 -95 -16 -47 -1 -56 2 -66 22 -15 30 -1 113 32 187 14 32 23 67
21 77 -9 32 40 57 100 51 29 -2 60 0 70 6 20 12 20 12 118 -23z m547 -68 c33
-60 -2 -95 -40 -40 -15 21 -17 31 -8 45 15 23 33 21 48 -5z m838 -193 c0 -20
-59 -85 -76 -85 -8 0 -41 -13 -74 -30 -60 -31 -104 -38 -115 -20 -3 6 -17 10
-31 10 -15 0 -24 6 -24 16 0 10 6 14 15 10 8 -3 15 -1 15 3 0 5 -5 11 -12 13
-18 6 0 28 23 28 11 0 22 7 25 15 4 8 12 15 19 15 8 0 20 6 27 14 20 19 41 23
131 24 60 1 77 -2 77 -13z m-3235 -201 c44 -9 112 -22 150 -29 39 -8 97 -17
130 -21 33 -3 105 -15 160 -25 55 -11 116 -19 135 -19 107 -1 400 -89 400
-120 0 -6 8 -10 18 -10 13 0 14 -2 4 -9 -10 -6 -2 -19 32 -53 37 -38 43 -48
33 -61 -7 -8 -21 -17 -31 -19 -30 -5 -43 -34 -27 -59 13 -22 12 -22 -47 -15
-57 6 -60 6 -55 -14 3 -11 13 -20 22 -20 14 0 14 -2 1 -10 -13 -9 -13 -10 0
-9 18 0 69 28 55 30 -5 0 3 5 20 10 20 5 41 5 62 -3 26 -9 44 -9 85 1 83 20
166 25 184 10 16 -13 56 -88 68 -126 5 -16 1 -28 -16 -45 -21 -21 -33 -78 -17
-78 4 0 19 16 34 36 20 26 33 34 47 31 11 -3 31 -2 44 3 28 11 54 3 54 -16 0
-8 11 -19 25 -24 36 -14 36 -60 -1 -60 -24 0 -70 -26 -103 -58 -16 -16 -51 -7
-70 19 -19 27 -49 23 -68 -8 -10 -16 -38 -48 -65 -72 -35 -32 -52 -41 -65 -36
-24 11 -115 6 -127 -6 -6 -5 -45 -9 -89 -9 -70 0 -78 -2 -74 -17 17 -62 17
-72 -4 -91 -18 -18 -23 -18 -49 -6 -33 17 -78 72 -102 128 -10 21 -39 58 -65
82 -47 42 -47 44 -37 81 6 24 7 52 1 73 -6 24 -5 46 3 70 13 37 18 43 72 101
l33 36 -20 34 c-45 77 -102 93 -309 87 -156 -5 -181 -12 -296 -82 -36 -22 -74
-41 -85 -42 -11 -1 -24 -3 -28 -3 -5 -1 -32 -23 -60 -50 -54 -51 -61 -54 -114
-52 -25 1 -33 7 -42 32 -6 18 -11 42 -11 55 0 12 -14 53 -31 90 -33 72 -35 89
-24 229 7 92 27 151 55 159 22 6 113 -3 205 -20z m-445 -204 c43 -37 44 -40
27 -57 -26 -26 -92 -22 -117 7 -24 27 -25 40 -5 40 8 0 14 3 14 8 -9 53 21 54
81 2z m2240 -204 c21 -26 -7 -129 -45 -165 -38 -37 -92 -48 -120 -24 -25 22
-37 50 -25 58 5 3 2 18 -6 33 -17 33 -18 98 -1 109 17 11 149 20 168 11 9 -4
21 -14 29 -22z m1390 -212 c0 -8 -9 -14 -20 -14 -19 0 -28 28 -13 43 9 9 33
-12 33 -29z m-3708 -21 c23 -20 23 -34 0 -54 -28 -24 -53 -30 -68 -18 -20 16
-17 46 6 69 24 24 38 25 62 3z m3675 -25 c12 -20 13 -41 2 -54 -13 -16 -56
-14 -70 2 -8 10 -8 14 0 14 6 0 11 6 11 13 0 30 42 48 57 25z m-3232 -33 c43
-42 26 -115 -26 -115 -40 0 -81 119 -46 133 27 11 49 6 72 -18z m458 5 c34
-17 35 -63 1 -68 -26 -4 -69 30 -69 55 0 16 22 35 35 29 3 -1 18 -8 33 -16z
m2632 7 c13 -10 15 -16 6 -21 -17 -11 -41 0 -41 19 0 19 11 19 35 2z m205 -93
c0 -8 -10 -14 -25 -14 -14 0 -25 6 -25 13 0 6 -3 23 -7 36 l-6 25 31 -23 c18
-12 32 -29 32 -37z m-2685 -124 c3 -5 1 -10 -4 -10 -6 0 -11 5 -11 10 0 6 2
10 4 10 3 0 8 -4 11 -10z m2382 -16 c9 -25 -12 -38 -31 -19 -9 9 -14 21 -11
26 10 14 35 10 42 -7z m-2366 -14 c15 -9 19 -22 19 -65 0 -48 -2 -55 -20 -55
-11 0 -21 5 -21 10 -1 6 -2 13 -4 18 -11 42 -16 83 -10 91 8 14 11 14 36 1z
m-1035 -145 c19 -47 17 -95 -7 -124 -11 -13 -22 -21 -25 -18 -6 6 -33 122 -34
145 0 6 7 12 15 12 8 0 15 5 15 10 0 23 22 8 36 -25z m2704 -237 c0 -16 -19
-7 -34 14 -21 30 -7 46 15 17 10 -13 19 -27 19 -31z m1140 11 c0 -11 -4 -17
-10 -14 -5 3 -10 13 -10 21 0 8 5 14 10 14 6 0 10 -9 10 -21z m-535 -10 c4 -6
5 -12 3 -14 -7 -7 -48 7 -48 16 0 13 37 11 45 -2z m-500 -19 c3 -6 -1 -7 -9
-4 -18 7 -21 14 -7 14 6 0 13 -4 16 -10z m584 -22 c10 -28 9 -30 -13 -22 -17
7 -23 44 -6 44 6 0 14 -10 19 -22z m321 -18 c0 -23 -4 -30 -20 -30 -16 0 -20
7 -20 30 0 23 4 30 20 30 16 0 20 -7 20 -30z m-766 -11 c-21 -24 -29 -24 -31
-1 -1 11 6 17 23 18 24 2 25 1 8 -17z m493 -5 c-9 -9 -28 6 -21 18 4 6 10 6
17 -1 6 -6 8 -13 4 -17z m-355 4 c-9 -9 -15 -9 -24 0 -9 9 -7 12 12 12 19 0
21 -3 12 -12z m85 6 c-3 -3 -12 -4 -19 -1 -8 3 -5 6 6 6 11 1 17 -2 13 -5z
m-817 -14 c0 -5 -4 -10 -10 -10 -5 0 -10 5 -10 10 0 6 5 10 10 10 6 0 10 -4
10 -10z m854 -15 c3 -8 12 -15 19 -15 8 0 22 -9 31 -19 13 -15 14 -20 4 -24
-8 -3 -3 -9 14 -17 31 -15 28 -30 -5 -29 -12 0 -17 3 -10 5 7 3 -7 23 -33 49
-42 43 -54 65 -35 65 5 0 11 -7 15 -15z m-324 -11 c0 -2 -7 -4 -15 -4 -8 0
-15 4 -15 10 0 5 7 7 15 4 8 -4 15 -8 15 -10z m781 -11 c8 -101 6 -119 -14
-106 -7 4 -21 7 -32 8 -15 0 -20 7 -20 28 0 17 -8 34 -19 43 -19 13 -19 14 6
14 14 0 31 7 38 15 17 20 40 19 41 -2z m-741 -12 c3 -1 -6 -6 -18 -12 -24 -9
-42 -5 -42 11 0 7 40 8 60 1z m455 -11 c3 -5 2 -10 -4 -10 -5 0 -13 5 -16 10
-3 6 -2 10 4 10 5 0 13 -4 16 -10z m-65 -74 c0 -11 -19 -15 -25 -6 -3 5 1 10
9 10 9 0 16 -2 16 -4z m-1197 -37 c-6 -22 -33 -26 -33 -5 0 8 -6 16 -12 19 -7
2 1 4 18 5 27 0 31 -3 27 -19z m128 -2 c-1 -12 -15 -9 -19 4 -3 6 1 10 8 8 6
-3 11 -8 11 -12z m669 -1 c0 -3 -4 -8 -10 -11 -5 -3 -10 -1 -10 4 0 6 5 11 10
11 6 0 10 -2 10 -4z m-876 -21 c3 -8 1 -15 -3 -15 -5 0 -11 7 -15 15 -3 8 -1
15 3 15 5 0 11 -7 15 -15z m1576 0 c0 -8 -7 -15 -15 -15 -16 0 -20 12 -8 23
11 12 23 8 23 -8z m-1529 -28 c-1 -12 -15 -9 -19 4 -3 6 1 10 8 8 6 -3 11 -8
11 -12z m-43 -8 c-2 -6 -8 -10 -13 -10 -5 0 -11 4 -13 10 -2 6 4 11 13 11 9 0
15 -5 13 -11z m885 4 c-7 -2 -21 -2 -30 0 -10 3 -4 5 12 5 17 0 24 -2 18 -5z
m697 -8 c0 -8 -7 -15 -15 -15 -16 0 -20 12 -8 23 11 12 23 8 23 -8z m150 0 c0
-8 -4 -15 -10 -15 -5 0 -10 7 -10 15 0 8 5 15 10 15 6 0 10 -7 10 -15z m-900
-5 c0 -5 -5 -10 -11 -10 -5 0 -7 5 -4 10 3 6 8 10 11 10 2 0 4 -4 4 -10z
m-1309 -10 c22 0 29 -5 29 -19 0 -11 -4 -23 -10 -26 -14 -9 -90 16 -90 30 0
17 12 26 28 20 7 -3 27 -5 43 -5z m163 -11 c-3 -5 -10 -7 -15 -3 -5 3 -7 10
-3 15 3 5 10 7 15 3 5 -3 7 -10 3 -15z m706 11 c0 -5 -4 -10 -10 -10 -5 0 -10
5 -10 10 0 6 5 10 10 10 6 0 10 -4 10 -10z m-592 -18 c2 -7 -3 -12 -12 -12 -9
0 -16 7 -16 16 0 17 22 14 28 -4z m262 1 c0 -26 -16 -47 -29 -39 -12 8 -15 39
-4 49 13 13 33 7 33 -10z m-90 -3 c0 -5 -4 -10 -10 -10 -5 0 -10 5 -10 10 0 6
5 10 10 10 6 0 10 -4 10 -10z m-280 -35 c11 -13 10 -18 -6 -30 -10 -8 -27 -15
-37 -15 -14 0 -17 -5 -12 -20 9 -27 -10 -25 -29 2 -22 31 -20 34 14 47 17 5
30 15 30 20 0 16 26 13 40 -4z m1170 -25 c0 -5 -4 -10 -10 -10 -5 0 -10 5 -10
10 0 6 5 10 10 10 6 0 10 -4 10 -10z m-496 -6 c9 -3 16 -11 16 -18 1 -21 60
-76 82 -76 21 -1 21 -3 -11 -30 -19 -16 -39 -26 -45 -22 -6 3 -20 6 -31 7 -16
0 -20 7 -19 30 0 16 -8 39 -18 49 -10 11 -15 22 -12 25 3 3 13 -5 23 -17 11
-15 23 -21 34 -17 14 6 11 12 -20 41 -34 32 -34 41 1 28z m181 -4 c-3 -5 -11
-10 -16 -10 -6 0 -7 5 -4 10 3 6 11 10 16 10 6 0 7 -4 4 -10z m65 -10 c8 -5
11 -10 5 -10 -5 0 -17 5 -25 10 -8 5 -10 10 -5 10 6 0 17 -5 25 -10z m-1146
-9 c3 -4 3 -11 0 -14 -8 -8 -34 3 -34 14 0 11 27 12 34 0z m270 -40 c7 -26 7
-36 -2 -39 -7 -2 -19 -10 -26 -17 -12 -12 -16 -11 -30 4 -20 22 -21 61 -1 61
8 0 15 7 15 16 0 29 34 10 44 -25z m-84 -21 c0 -5 -6 -10 -14 -10 -8 0 -18 5
-21 10 -3 6 3 10 14 10 12 0 21 -4 21 -10z m1485 -20 c-3 -5 -13 -10 -21 -10
-8 0 -12 5 -9 10 3 6 13 10 21 10 8 0 12 -4 9 -10z m-1565 -16 c0 -8 -5 -12
-10 -9 -6 4 -8 11 -5 16 9 14 15 11 15 -7z m1450 6 c0 -5 -7 -10 -15 -10 -8 0
-15 5 -15 10 0 6 7 10 15 10 8 0 15 -4 15 -10z m-1485 -10 c3 -5 -1 -10 -9
-10 -9 0 -16 5 -16 10 0 6 4 10 9 10 6 0 13 -4 16 -10z m1520 0 c3 -5 2 -10
-4 -10 -5 0 -13 5 -16 10 -3 6 -2 10 4 10 5 0 13 -4 16 -10z m-1430 -10 c3 -5
-1 -10 -9 -10 -9 0 -16 5 -16 10 0 6 4 10 9 10 6 0 13 -4 16 -10z m1470 0 c-3
-5 5 -15 19 -21 14 -7 23 -16 20 -21 -3 -5 -11 -4 -19 2 -7 6 -19 9 -26 7 -8
-2 -11 -2 -8 0 4 2 5 13 2 23 -3 12 0 20 6 20 7 0 9 -4 6 -10z m-1202 -17 c-7
-2 -19 -2 -25 0 -7 3 -2 5 12 5 14 0 19 -2 13 -5z m1034 -19 c-3 -3 -12 -4
-19 -1 -8 3 -5 6 6 6 11 1 17 -2 13 -5z"/>
<path d="M2983 3856 c26 -18 62 -39 80 -46 17 -8 40 -20 50 -28 24 -21 30 -10
12 25 -17 34 -112 83 -161 83 -28 0 -28 -1 19 -34z"/>
<path d="M1900 3743 c-25 -17 -51 -46 -46 -51 2 -1 17 3 34 9 22 7 29 15 25
26 -4 10 -2 14 4 10 6 -4 13 0 17 8 7 20 -4 19 -34 -2z"/>
<path d="M1920 3686 c0 -2 7 -9 15 -16 12 -10 15 -10 15 4 0 9 -7 16 -15 16
-8 0 -15 -2 -15 -4z"/>
<path d="M4318 3391 c-17 -20 -16 -21 4 -32 24 -13 104 -7 121 10 17 17 -4 31
-59 37 -41 5 -52 3 -66 -15z"/>
<path d="M1558 3184 c-5 -4 -8 -16 -8 -27 0 -14 5 -18 19 -14 13 3 21 -1 24
-14 4 -14 10 -16 33 -10 30 8 40 27 25 49 -9 15 -82 28 -93 16z"/>
<path d="M5842 1280 c0 -14 2 -19 5 -12 2 6 2 18 0 25 -3 6 -5 1 -5 -13z"/>
<path d="M5805 780 c-3 -5 -13 -10 -21 -10 -22 0 -44 -25 -34 -39 6 -10 9 -10
15 -1 5 8 13 3 25 -15 l18 -27 21 47 c12 26 21 49 21 51 0 9 -39 3 -45 -6z"/>
<path d="M5485 420 c3 -5 8 -10 11 -10 2 0 4 5 4 10 0 6 -5 10 -11 10 -5 0 -7
-4 -4 -10z"/>
<path d="M5479 387 c-14 -11 -14 -14 6 -35 l21 -23 24 21 c21 18 21 20 4 21
-10 1 -26 1 -34 0 -10 0 -11 1 -2 5 13 6 17 24 5 24 -5 0 -15 -6 -24 -13z"/>
<path d="M5535 319 c-12 -19 5 -23 22 -6 16 16 16 17 1 17 -9 0 -20 -5 -23
-11z"/>
</g>
</svg>
