<?xml version="1.0" standalone="no"?>
<!DOCTYPE svg PUBLIC "-//W3C//DTD SVG 20010904//EN"
 "http://www.w3.org/TR/2001/REC-SVG-20010904/DTD/svg10.dtd">
<svg version="1.0" xmlns="http://www.w3.org/2000/svg"
 width="927.000000pt" height="927.000000pt" viewBox="0 0 927.000000 927.000000"
 preserveAspectRatio="xMidYMid meet">
<metadata>
Created by potrace 1.11, written by Peter Selinger 2001-2013
</metadata>
<g transform="translate(0.000000,927.000000) scale(0.100000,-0.100000)"
fill="#000000" stroke="none">
<path d="M6765 6932 c-22 -21 -83 -73 -136 -115 -83 -67 -104 -89 -148 -165
l-52 -87 20 -79 c18 -75 19 -102 3 -92 -7 4 -61 9 -227 22 -38 3 -80 7 -93 9
-12 2 -44 -2 -70 -10 -26 -8 -58 -16 -72 -19 -14 -2 -59 -13 -100 -24 -113
-31 -547 -143 -610 -158 -158 -37 -170 -42 -366 -157 -39 -23 -147 -86 -240
-140 -93 -54 -221 -129 -284 -165 -63 -37 -131 -76 -150 -87 -19 -11 -37 -22
-40 -25 -3 -3 -22 -14 -43 -25 -21 -11 -44 -29 -49 -40 -24 -43 -149 -208
-172 -226 -22 -17 -26 -18 -40 -4 -14 15 -16 58 -3 95 2 8 10 44 16 80 12 71
11 73 -50 105 -44 23 -95 -17 -176 -138 -37 -56 -77 -110 -87 -120 -19 -17
-21 -16 -59 28 l-40 46 -29 -28 c-19 -18 -35 -51 -49 -98 -11 -38 -40 -124
-64 -190 -24 -66 -48 -145 -54 -175 -24 -125 -25 -115 13 -320 3 -14 9 -46 14
-72 9 -45 7 -52 -10 -49 -5 0 -8 -6 -8 -14 0 -9 -85 -129 -189 -268 -170 -228
-211 -275 -429 -498 l-242 -246 -97 -29 c-54 -16 -100 -29 -103 -29 -3 -1 -50
-15 -105 -32 -218 -69 -638 -194 -654 -195 -14 0 -182 35 -476 99 -38 8 -107
23 -153 33 -45 9 -84 19 -86 21 -2 2 -40 63 -85 134 -44 72 -84 135 -88 140
-5 6 -37 56 -71 111 l-62 101 94 281 c85 255 92 283 79 302 -8 11 -11 25 -7
32 5 7 2 9 -8 5 -11 -4 -33 16 -74 68 -33 41 -62 74 -65 74 -6 1 -65 -153
-191 -499 -27 -74 -55 -151 -63 -170 -7 -19 -29 -77 -48 -129 l-34 -94 80
-141 c44 -77 89 -157 99 -176 11 -19 28 -48 38 -65 10 -16 26 -46 37 -65 75
-141 157 -278 164 -274 4 2 27 -2 51 -10 24 -8 117 -37 208 -66 91 -28 190
-60 220 -70 132 -44 445 -144 450 -143 5 1 53 5 250 19 36 2 92 6 125 9 33 2
105 7 160 10 55 3 120 7 145 10 25 2 90 7 145 10 142 9 166 13 235 41 45 18
65 22 75 14 9 -8 14 -6 17 7 3 13 51 36 154 77 82 32 163 65 179 72 17 7 212
85 435 174 375 149 457 176 645 215 11 3 31 7 45 10 14 3 35 7 48 10 13 2 32
7 42 10 42 13 64 14 72 2 6 -9 10 -9 16 -1 4 6 25 10 47 8 22 -1 83 -5 135 -9
147 -9 190 -14 234 -26 23 -6 48 -12 56 -14 41 -8 240 -55 252 -60 7 -2 24 -7
38 -9 14 -3 59 -11 100 -19 41 -8 113 -18 160 -22 47 -4 99 -8 115 -10 17 -2
62 -7 100 -10 39 -3 84 -8 100 -10 17 -2 57 -7 90 -10 33 -4 148 -24 255 -45
107 -21 208 -41 224 -44 16 -3 45 2 64 10 l36 15 -41 42 c-37 38 -79 105 -71
112 4 3 118 24 168 31 19 2 58 9 85 14 28 5 68 13 90 16 22 3 47 8 55 9 8 2
37 7 63 11 43 6 50 11 68 46 15 29 16 39 7 42 -7 2 -46 14 -86 26 -70 21 -160
23 -248 6 -50 -10 -92 -9 -127 3 l-38 13 140 136 139 137 -14 33 c-13 29 -18
32 -57 32 -38 -1 -53 -10 -167 -100 -114 -91 -129 -100 -167 -100 -36 0 -45 4
-57 28 -12 24 -12 31 4 60 10 19 17 46 15 60 -2 15 -4 41 -4 58 -1 28 -3 30
-31 26 -21 -3 -42 -18 -68 -51 -81 -101 -78 -99 -193 -119 -66 -11 -117 -15
-135 -10 -16 4 -45 10 -64 13 -20 3 -45 7 -55 10 -11 2 -101 20 -200 40 -99
19 -227 51 -285 69 l-105 33 70 36 c270 139 229 107 546 417 160 157 310 304
334 328 40 39 53 45 196 86 430 122 561 157 575 152 10 -4 14 -23 16 -63 0
-32 2 -62 3 -68 2 -5 3 -35 4 -66 1 -51 5 -62 54 -124 28 -38 78 -102 110
-144 57 -75 94 -117 119 -136 55 -43 347 -255 363 -263 11 -6 109 -54 218
-106 180 -87 200 -94 225 -84 15 7 29 13 30 14 2 2 -17 32 -42 67 -25 36 -46
69 -46 75 0 19 59 24 258 20 l197 -3 0 30 c0 28 -3 30 -55 42 -178 40 -353 83
-358 87 -10 11 28 54 65 72 117 59 203 107 203 113 -1 3 -9 16 -20 29 -17 21
-27 23 -103 23 -62 0 -99 -6 -138 -21 -48 -19 -143 -29 -156 -17 -3 3 2 16 11
28 15 21 14 23 -15 41 -29 18 -32 17 -116 -4 l-86 -21 -66 70 c-36 38 -100
107 -141 153 -82 92 -79 79 -68 225 5 69 12 87 33 78 9 -3 15 1 15 9 0 14 57
46 95 54 56 11 118 13 451 14 198 1 378 5 400 10 21 5 75 11 119 15 43 3 82 8
85 10 3 1 43 6 90 9 87 7 128 12 189 22 37 6 412 190 423 207 3 6 4 20 1 31
-2 12 -6 57 -7 101 l-3 80 -86 138 c-48 76 -87 149 -87 162 0 22 -43 244 -56
287 -3 9 -43 36 -89 59 l-84 43 -53 -17 c-104 -32 -145 -32 -222 3 -38 18 -79
34 -90 36 -21 4 -103 17 -181 29 -22 3 -51 7 -65 10 -14 2 -89 14 -168 25
l-143 22 -69 -26 c-37 -13 -71 -22 -74 -19 -3 4 -20 8 -38 10 -17 2 -37 8 -45
14 -7 6 -13 8 -13 4 0 -4 -6 -3 -12 2 -18 13 -134 54 -160 56 -12 1 -30 17
-43 38 -13 19 -60 64 -104 99 -72 57 -81 68 -81 97 0 31 2 33 38 34 128 4 177
10 200 25 l26 17 -48 43 c-46 40 -70 50 -146 60 -19 2 -59 9 -87 15 -29 6 -57
8 -62 5 -5 -4 -12 -2 -16 4 -3 5 -14 10 -23 10 -10 0 -27 7 -39 15 l-21 15 24
82 c13 45 24 83 24 85 0 2 -21 3 -47 3 -42 0 -53 -5 -88 -38z"/>
</g>
</svg>
